<?xml version="1.0" encoding="UTF-8"?>
<svg id="Calque_2" data-name="Calque 2" xmlns="http://www.w3.org/2000/svg" viewBox="0 0 941 136.1">
  <defs>
    <style>
      .cls-1 {
        fill: #ebebeb;
        stroke-width: 0px;
      }
    </style>
  </defs>
  <g id="Calque_1-2" data-name="Calque 1">
    <g>
      <path class="cls-1" d="M96.04,29.14c0,15.72-11.5,21.28-32.21,32.4-13.04,7.09-28.56,16.68-28.56,33.16v28.76l10.35,11.69H0l10.35-11.69V12.65L0,.96h64.99c17.64,0,31.05,12.08,31.05,28.18ZM35.27,85.69c2.49-7.28,8.24-13.23,18.79-20.13,14.57-9.59,16.68-26.65,16.68-35.85,0-18.21-11.5-27.22-30.29-27.22h-5.18v83.2Z"/>
      <path class="cls-1" d="M168.5,0c37.38,0,68.24,30.48,68.24,68.05s-30.86,68.05-68.24,68.05-68.24-30.48-68.24-68.05S131.12,0,168.5,0ZM188.82,127.67c15.72,0,31.05-11.69,31.05-36.42,0-37-36.04-82.81-71.69-82.81-15.72,0-31.05,11.69-31.05,36.42,0,37,36.04,82.81,71.69,82.81Z"/>
      <path class="cls-1" d="M345.62,99.11c0,22.24-17.44,36.04-41.02,36.04l-53.29-.19-5.94-40.45,32.01,34.51c5.75,2.3,14.19,4.22,24.54,4.22,14.57,0,29.52-2.68,29.52-16.29,0-16.68-21.66-27.03-37.38-34.51l-23.96-11.31c-12.27-5.75-25.5-16.49-25.5-34.7,0-10.16,4.03-23.77,14.38-30.1,6.9-4.22,15.72-5.37,27.8-5.37h45.43l5.37,40.83-28.95-34.12c-5.75-2.68-13.61-4.79-21.85-4.79-17.25-.38-33.16,3.45-33.16,17.25s23,22.24,42.17,30.1c27.99,11.5,49.84,20.7,49.84,48.88Z"/>
      <path class="cls-1" d="M448.55.96l8.24,39.87L422.87,2.49h-9.97v120.96l10.35,11.69h-45.62l10.35-11.69V2.49h-9.97l-34.12,38.34L352.13.96h96.42Z"/>
      <path class="cls-1" d="M524.65,0c21.85,0,42.17,10.35,55.21,28.37h-33.35c-13.61-12.84-28.75-19.94-41.79-19.94-18.98,0-31.44,14.76-31.44,36.42,0,37.57,36.61,82.81,71.5,82.81,15.14,0,26.07-9.39,29.9-24.35h8.05c-12.65,20.7-33.93,32.78-58.08,32.78-37.38,0-67.86-30.48-67.86-67.86S487.27,0,524.65,0Z"/>
      <path class="cls-1" d="M654.81,0c37.38,0,68.24,30.48,68.24,68.05s-30.86,68.05-68.24,68.05-68.24-30.48-68.24-68.05S617.43,0,654.81,0ZM675.13,127.67c15.72,0,31.05-11.69,31.05-36.42,0-37-36.04-82.81-71.69-82.81-15.72,0-31.05,11.69-31.05,36.42,0,37,36.04,82.81,71.69,82.81Z"/>
      <path class="cls-1" d="M829.83,123.45l10.74,11.69h-43.32l7.09-7.67-28.95-54.63c-7.09,6.32-11.12,13.42-11.12,22.43v28.18l10.35,11.69h-45.62l10.35-11.69V12.65l-10.35-11.69h64.6c17.83,0,31.05,12.08,31.05,28.18,0,14.76-9.97,20.51-27.6,30.1l32.78,64.22ZM764.27,85.69c2.49-7.28,8.05-13.23,18.4-20.13,14.57-9.59,16.68-26.65,16.68-35.85,0-17.25-10.74-27.22-30.29-27.22h-4.79v83.2Z"/>
      <path class="cls-1" d="M854.36,123.45V12.65l-10.35-11.69h83.58v25.88l-48.31-23.58v50.42l48.31-.19v25.88l-48.31-23.39v76.87l61.73-23.58v25.88h-97l10.35-11.69Z"/>
    </g>
  </g>
</svg>